<svg width="134" height="40" viewBox="0 0 134 40" fill="none" xmlns="http://www.w3.org/2000/svg">
<rect width="134" height="40" rx="5" fill="#1A202C"/>
<path fill-rule="evenodd" clip-rule="evenodd" d="M45.6286 9.49248C45.6634 10.257 45.3889 11.0027 44.8693 11.5554C44.2886 12.1699 43.4788 12.5037 42.642 12.4734C41.3587 12.4632 40.2064 11.6701 39.7179 10.4609C39.2295 9.25175 39.5001 7.86208 40.4046 6.93447C40.9924 6.32315 41.8023 5.98709 42.642 6.00615C43.07 6.0047 43.4938 6.09246 43.8873 6.26402C44.2536 6.41456 44.5797 6.65139 44.8389 6.9551L44.3024 7.50177C43.8927 7.0053 43.2777 6.73404 42.642 6.76943C42.0031 6.76624 41.3904 7.02842 40.9453 7.49552C40.5002 7.96261 40.2611 8.59431 40.2831 9.24493C40.2696 10.2281 40.8379 11.1231 41.7237 11.5134C42.6095 11.9037 43.6388 11.7127 44.3327 11.0294C44.6443 10.6854 44.8239 10.2387 44.8389 9.77098H42.642V9.02833H45.5881C45.6151 9.18151 45.6287 9.33685 45.6286 9.49248ZM50.2654 6.91384H47.5319V8.87361H50.0224V9.61626H47.5319V11.576H50.2654V12.3393H46.722V6.15056H50.2654V6.91384ZM53.586 12.3393H52.8065V6.91384H51.1057V6.15056H55.3273V6.91384H53.586V12.3393ZM58.3038 12.3393V6.15056H59.0833V12.3393H58.3038ZM62.5457 12.3393H61.7662V6.91384H60.0654V6.15056H64.2364V6.91384H62.5457V12.3393ZM72.1432 11.5348C70.9111 12.7831 68.9208 12.7831 67.6887 11.5348C66.4943 10.2467 66.4943 8.23283 67.6887 6.94478C68.2779 6.34009 69.0796 6 69.916 6C70.7523 6 71.554 6.34009 72.1432 6.94478C73.3427 8.23076 73.3427 10.2488 72.1432 11.5348ZM68.2658 11.019C69.1783 11.9448 70.6537 11.9448 71.5662 11.019C72.4623 10.0125 72.4623 8.47735 71.5662 7.47083C70.6537 6.54502 69.1783 6.54502 68.2658 7.47083C67.3696 8.47735 67.3696 10.0125 68.2658 11.019ZM74.1376 12.3393V6.15056H75.0893L78.0455 10.9675V6.15056H78.825V12.3393H78.0151L74.9273 7.29548V12.3393H74.1376ZM66.6054 21.3646C67.755 21.3421 68.8644 21.796 69.6793 22.6224C70.4943 23.4488 70.945 24.5769 70.9284 25.7483C70.9283 28.1666 69.0061 30.1281 66.6324 30.1319C64.2587 30.1357 62.3305 28.1803 62.323 25.762C62.3156 23.3436 64.2318 21.3759 66.6054 21.3646ZM66.6054 28.4094C67.2769 28.3936 67.9137 28.102 68.3712 27.6009C68.8287 27.0999 69.0681 26.4318 69.0352 25.7483C69.0326 24.6556 68.3746 23.6756 67.376 23.277C66.3775 22.8784 65.2412 23.1422 64.5107 23.9422C63.7803 24.7423 63.604 25.9159 64.0664 26.9019C64.5287 27.8878 65.5356 28.4857 66.6054 28.4094ZM57.18 21.3646H57.1699C58.3195 21.3421 59.4288 21.796 60.2438 22.6224C61.0587 23.4488 61.5095 24.5769 61.4928 25.7483C61.4928 28.168 59.5685 30.1301 57.1935 30.1319C54.8185 30.1338 52.8912 28.1748 52.8875 25.7551C52.8838 23.3354 54.805 21.3703 57.18 21.3646ZM57.18 28.4094H57.1699C57.8414 28.3936 58.4782 28.102 58.9357 27.6009C59.3932 27.0999 59.6326 26.4318 59.5997 25.7483C59.5967 24.6547 58.9375 23.6743 57.9377 23.2766C56.9378 22.8788 55.8009 23.1448 55.0715 23.947C54.3421 24.7493 54.1686 25.9245 54.6342 26.9098C55.0998 27.8951 56.1096 28.49 57.18 28.4094ZM45.9526 22.7158L52.0978 22.6642C52.1684 23.0485 52.2023 23.4388 52.199 23.8298C52.2467 25.4345 51.6804 26.9952 50.6197 28.1825C49.4076 29.4756 47.7058 30.1714 45.9526 30.0907C43.5015 30.1879 41.1947 28.9111 39.9408 26.7632C38.6869 24.6153 38.6869 21.9406 39.9408 19.7927C41.1947 17.6448 43.5015 16.368 45.9526 16.4651C47.6744 16.4499 49.3288 17.1458 50.5387 18.394L49.253 19.7039C48.3659 18.8314 47.1753 18.3529 45.9424 18.3733C43.2586 18.3733 41.0829 20.59 41.0829 23.3243C41.0829 26.0587 43.2586 28.2753 45.9424 28.2753C47.2044 28.3266 48.4289 27.832 49.3137 26.9138C49.9007 26.272 50.2575 25.4469 50.3261 24.5724H45.9526V22.7158ZM91.8242 24.1598L92.0368 24.624L86.2763 27.0479C86.6373 27.8856 87.4644 28.4133 88.3618 28.3785C89.2283 28.3807 90.032 27.9184 90.4777 27.1614L91.9457 28.1928C91.1465 29.4114 89.8003 30.1399 88.3618 30.132C87.2184 30.149 86.1173 29.6917 85.3115 28.8649C84.5058 28.0381 84.0646 26.9131 84.0895 25.7483C84.0195 24.6101 84.4151 23.4931 85.1823 22.6627C85.9494 21.8322 87.0197 21.3623 88.1391 21.3646C89.8176 21.4275 91.2837 22.5396 91.8242 24.1598ZM85.9523 25.6245L89.7994 23.9948C89.4968 23.3869 88.8674 23.0217 88.1998 23.0665C87.5665 23.0956 86.9714 23.3832 86.5486 23.8644C86.1258 24.3456 85.9109 24.98 85.9523 25.6245ZM81.275 29.8741V16.9809H83.1682V29.8741H81.275ZM78.1771 22.3445V21.6224H79.9184V29.4306C79.9184 32.6693 78.086 33.9999 75.8688 33.9999C74.1976 34.0101 72.6876 32.9858 72.0521 31.411L73.7023 30.7096C74.0473 31.6286 74.9033 32.2441 75.8688 32.2671C77.2862 32.2671 78.167 31.3697 78.167 29.6884V29.0592H78.1062C77.5373 29.7279 76.7069 30.1056 75.8385 30.0907C73.5405 29.9772 71.7346 28.0459 71.7346 25.7018C71.7346 23.3578 73.5405 21.4265 75.8385 21.313C76.7041 21.3118 77.5291 21.6871 78.1062 22.3445H78.1771ZM76.0106 28.4094H76.0005C76.6584 28.3837 77.2774 28.0847 77.7134 27.582C78.1494 27.0793 78.3645 26.4167 78.3087 25.7483C78.3587 25.0829 78.1429 24.4251 77.7102 23.9241C77.2776 23.4231 76.6647 23.1213 76.0106 23.0871C74.6569 23.2086 73.6187 24.3637 73.6187 25.7483C73.6187 27.1328 74.6569 28.2879 76.0106 28.4094ZM100.703 16.9809C102.174 16.8732 103.58 17.6116 104.348 18.8943C105.115 20.1769 105.115 21.7889 104.348 23.0716C103.58 24.3543 102.174 25.0926 100.703 24.985H98.0606V29.8741H96.1674V16.9809H100.703ZM100.693 23.1696L100.733 23.2006C101.933 23.2006 102.905 22.21 102.905 20.9881C102.905 19.7662 101.933 18.7756 100.733 18.7756H98.0504V23.1696H100.693ZM112.366 21.313L112.416 21.3439C114.573 21.3439 116.253 22.6539 116.253 24.9128V29.8741H114.431V28.8426H114.37C113.843 29.6768 112.912 30.1514 111.94 30.0804C111.152 30.1397 110.374 29.8718 109.783 29.3375C109.192 28.8033 108.838 28.0481 108.802 27.2439C108.802 25.3769 110.634 24.3455 112.447 24.3455C113.135 24.3425 113.813 24.5126 114.421 24.8406V24.7065C114.373 24.211 114.131 23.756 113.75 23.4437C113.369 23.1314 112.882 22.9881 112.396 23.0458C111.689 22.9869 111.014 23.3591 110.675 23.9948L108.994 23.2831C109.633 22.0011 110.957 21.2272 112.366 21.313ZM112.133 28.3785L112.183 28.4094C113.324 28.3811 114.27 27.5011 114.401 26.3465C113.875 26.0478 113.281 25.8982 112.68 25.9133C111.728 25.9133 110.655 26.2537 110.655 27.2851C110.655 28.0587 111.515 28.3785 112.133 28.3785ZM122.895 21.6224H125L119.817 33.7833H117.843L119.766 29.4409L116.395 21.6224H118.42L120.667 27.2129H120.728L122.895 21.6224ZM105.876 29.8741V16.9809H107.769V29.8741H105.876ZM32.5541 19.1536C32.8056 19.299 32.9558 19.5593 32.9558 19.8498C32.9558 20.1402 32.8055 20.4005 32.5541 20.5456L27.9899 23.18L24.7858 20.0828L28.2916 16.694L32.5541 19.1536ZM27.5681 16.276L24.2082 19.5242L12.5971 8.3L22.8773 13.568L27.5681 16.276ZM12.7678 31.7L24.2082 20.6413L27.2664 23.5979L22.8949 26.1214L12.7678 31.7ZM11.9113 8.75435L23.6304 20.0826L11.9004 31.4217L11.9113 8.75435Z" fill="white"/>
</svg>
