<svg width="123" height="20" xmlns="http://www.w3.org/2000/svg"><g fill="none" fill-rule="evenodd"><path d="M15.328 1.207a3.948 3.948 0 0 1 3.948 3.948 3.959 3.959 0 0 1-3.948 3.948 3.937 3.937 0 0 1-3.949-3.948 3.937 3.937 0 0 1 3.949-3.948" fill="#F15822"/><path d="M20.448 19.914c-.655-3.345-.327-7.638-3.93-8.931-2.742-.983-5.397 1.603-5.104 4.138.034.345.138.879.293 1.224 1.414 2.896 5.69 2.948 8.741 3.569" fill="#005D82"/><path d="M.517.017c.707 3.328.449 7.638 4.07 8.88 2.758.948 5.379-1.69 5.05-4.207-.05-.345-.137-.88-.31-1.224C7.863.586 3.57.603.518.017" fill="#55C5CF"/><path d="M.517 19.88c3.345-.656 7.655-.363 8.931-3.966.983-2.742-1.62-5.38-4.155-5.086-.345.034-.896.138-1.224.293-2.914 1.448-2.948 5.724-3.552 8.758" fill="#005D82"/><g fill="#005D82" fill-rule="nonzero"><path d="M26.534 5.27h1.676v2.915c.203-.455.457-.893.762-1.28a5.321 5.321 0 0 1 1.033-1.012c.39-.286.812-.489 1.287-.64.457-.152.965-.202 1.49-.202v1.786h-.136c-.61 0-1.185.101-1.727.32-.542.22-1.016.54-1.422.978-.407.438-.728.96-.948 1.601-.237.64-.356 1.382-.356 2.208v4.45h-1.676V5.27h.017zM38.47 16.697a5.546 5.546 0 0 1-3.945-1.601 5.814 5.814 0 0 1-1.219-1.838c-.304-.707-.457-1.5-.457-2.36v-.05c0-.809.136-1.567.407-2.275a5.758 5.758 0 0 1 1.117-1.837 5.147 5.147 0 0 1 3.877-1.702c.83 0 1.558.151 2.218.472.66.303 1.202.724 1.66 1.264.457.539.795 1.163 1.015 1.87.237.708.339 1.484.339 2.293v.286c0 .068 0 .152-.017.253h-8.889c.051.607.203 1.146.44 1.601.237.472.525.86.88 1.18.356.32.763.573 1.203.741.44.169.931.253 1.44.253.778 0 1.455-.151 2.014-.438a5.83 5.83 0 0 0 1.524-1.146l1.033.927a6.403 6.403 0 0 1-1.93 1.517c-.746.387-1.643.59-2.71.59zm3.285-6.455a5.824 5.824 0 0 0-.322-1.45c-.169-.455-.39-.86-.694-1.213a3.303 3.303 0 0 0-2.556-1.146c-.491 0-.949.1-1.355.286a3.393 3.393 0 0 0-1.1.792 4.18 4.18 0 0 0-.78 1.197c-.202.455-.338.96-.389 1.517h7.196v.017zM45.074 5.27h1.676v1.938c.372-.607.863-1.112 1.473-1.55.61-.422 1.388-.641 2.37-.641.677 0 1.287.101 1.812.32.525.22.982.523 1.337.91.373.388.644.86.847 1.416a5.55 5.55 0 0 1 .288 1.82v6.927H53.2V9.904c0-1.044-.271-1.853-.796-2.46-.542-.607-1.304-.91-2.303-.91-.474 0-.914.084-1.337.253a3.145 3.145 0 0 0-1.778 1.82 3.92 3.92 0 0 0-.254 1.432v6.405h-1.676V5.27h.017zM57.146 5.27h1.676v1.87c.186-.27.39-.539.626-.792.22-.252.474-.488.762-.674.288-.185.61-.354.982-.472.356-.118.779-.168 1.253-.168.914 0 1.66.219 2.252.64.592.422 1.033.96 1.337 1.584.204-.303.424-.59.678-.86.254-.269.541-.505.863-.707a4.36 4.36 0 0 1 1.067-.472c.39-.118.846-.168 1.337-.168 1.304 0 2.32.404 3.065 1.196.745.792 1.1 1.905 1.1 3.287v6.91h-1.676v-6.54c0-1.078-.254-1.92-.762-2.494-.508-.59-1.219-.876-2.133-.876-.423 0-.813.067-1.185.219-.373.151-.711.37-.982.674a2.971 2.971 0 0 0-.66 1.095 4.44 4.44 0 0 0-.238 1.467v6.455h-1.676V9.87c0-1.045-.254-1.871-.762-2.46-.508-.59-1.219-.877-2.116-.877-.457 0-.864.084-1.236.253a2.803 2.803 0 0 0-.982.741 3.35 3.35 0 0 0-.66 1.112 4.138 4.138 0 0 0-.237 1.416v6.388h-1.693V5.27zM81.577 16.697c-.846 0-1.608-.152-2.32-.472a5.84 5.84 0 0 1-1.845-1.247 5.457 5.457 0 0 1-1.219-1.838 5.817 5.817 0 0 1-.44-2.241v-.05c0-.793.152-1.534.44-2.242a5.528 5.528 0 0 1 1.22-1.854 5.517 5.517 0 0 1 1.862-1.264 5.984 5.984 0 0 1 2.353-.472c.83 0 1.609.152 2.337.472a5.915 5.915 0 0 1 1.862 1.247c.525.522.931 1.13 1.219 1.837.288.691.44 1.45.44 2.242v.05a5.88 5.88 0 0 1-.44 2.242 6.091 6.091 0 0 1-1.219 1.854c-.525.539-1.134.96-1.862 1.264-.762.32-1.541.472-2.388.472m.051-1.5c.61 0 1.168-.118 1.676-.337.508-.236.931-.54 1.304-.927a4.44 4.44 0 0 0 .846-1.349 4.474 4.474 0 0 0 .305-1.651v-.051c0-.607-.101-1.163-.321-1.685a4.38 4.38 0 0 0-.88-1.382 4.382 4.382 0 0 0-1.321-.944c-.508-.236-1.05-.337-1.643-.337-.61 0-1.168.118-1.676.337a3.99 3.99 0 0 0-1.287.927 4.284 4.284 0 0 0-.83 1.365 4.563 4.563 0 0 0-.304 1.668v.051c0 .607.101 1.163.322 1.685.203.523.507.978.863 1.366.372.387.813.69 1.32.927.475.236 1.033.337 1.626.337M89.18 5.27h1.676v1.938c.372-.607.863-1.112 1.473-1.55.61-.422 1.388-.641 2.37-.641.677 0 1.287.101 1.812.32.524.22.982.523 1.337.91.373.388.644.86.847 1.416.203.54.288 1.146.288 1.82v6.927h-1.677V9.904c0-1.044-.27-1.853-.795-2.46-.542-.607-1.304-.91-2.303-.91-.474 0-.914.084-1.338.253a3.145 3.145 0 0 0-1.778 1.82 3.92 3.92 0 0 0-.253 1.432v6.405h-1.677V5.27h.017zM106.161 16.697a5.546 5.546 0 0 1-3.945-1.601 5.814 5.814 0 0 1-1.219-1.838c-.304-.707-.457-1.5-.457-2.36v-.05c0-.809.136-1.567.407-2.275a5.758 5.758 0 0 1 1.117-1.837 5.147 5.147 0 0 1 3.877-1.702c.83 0 1.558.151 2.218.472a4.882 4.882 0 0 1 1.66 1.264c.457.539.795 1.163 1.015 1.87.237.708.356 1.484.356 2.293v.286c0 .068 0 .152-.017.253h-8.889c.05.607.203 1.146.44 1.601.237.472.525.86.88 1.18.356.32.763.573 1.203.741.44.169.931.253 1.439.253.779 0 1.456-.151 2.015-.438a5.83 5.83 0 0 0 1.524-1.146l1.032.927a6.403 6.403 0 0 1-1.93 1.517c-.762.387-1.659.59-2.726.59zm3.302-6.455a6.678 6.678 0 0 0-.305-1.45c-.17-.455-.39-.86-.694-1.213a3.303 3.303 0 0 0-1.084-.826 3.404 3.404 0 0 0-1.49-.32c-.49 0-.948.1-1.354.286a3.393 3.393 0 0 0-1.1.792 4.18 4.18 0 0 0-.78 1.197c-.203.455-.338.96-.389 1.517h7.196v.017zM120.62 5.27h1.778l-4.706 11.528c-.475 1.146-1.016 1.972-1.592 2.444-.593.471-1.304.707-2.133.707-.457 0-.88-.05-1.253-.134a6.686 6.686 0 0 1-1.135-.422l.56-1.331c.27.151.54.253.812.32.27.067.575.101.948.101.508 0 .931-.152 1.287-.455.338-.303.694-.843 1.016-1.635l-5.097-11.106h1.846l4.08 9.303 3.59-9.32z"/></g></g></svg>